<?xml version="1.0" encoding="iso-8859-1"?>
<!-- Generator: Adobe Illustrator 19.0.0, SVG Export Plug-In . SVG Version: 6.00 Build 0)  -->
<svg version="1.1" id="Capa_1" xmlns="http://www.w3.org/2000/svg" xmlns:xlink="http://www.w3.org/1999/xlink" x="0px" y="0px"
	 viewBox="0 0 511.993 511.993" style="enable-background:new 0 0 511.993 511.993;" xml:space="preserve">
<path style="fill:#AF844B;" d="M141.239,233.927v44.138c-1.836,12.791,7.036,24.647,19.827,26.483c2.207,0.318,4.449,0.318,6.656,0
	h176.552c12.791,1.836,24.647-7.036,26.483-19.827c0.318-2.207,0.318-4.449,0-6.656v-44.138L141.239,233.927L141.239,233.927z"/>
<path style="fill:#333333;" d="M347.619,313.614c-1.289,0-2.604-0.079-3.919-0.238H168.305c-2.825,0.353-5.685,0.318-8.501-0.097
	c-8.51-1.218-16.04-5.694-21.204-12.579c-5.023-6.709-7.203-14.927-6.188-23.217V225.1h247.172v52.383
	c0.344,2.825,0.318,5.685-0.097,8.501C377.183,302.015,363.377,313.614,347.619,313.614z M150.067,242.755l-0.088,36.573
	c-0.556,3.849,0.424,7.68,2.763,10.805c2.33,3.116,5.738,5.129,9.587,5.685c1.386,0.194,2.772,0.185,4.14,0.009l1.254-0.106
	l177.814,0.088c7.901,1.174,15.342-4.387,16.481-12.341c0.194-1.368,0.194-2.763,0.009-4.14l-0.097-1.262v-35.31H150.067z"/>
<path style="fill:#44566B;" d="M503.17,428.134c-2.737-16.596-13.418-62.852-52.966-79.448
	c-66.295-28.072-106.902-44.138-194.207-44.138s-127.912,16.066-194.207,44.138c-39.548,16.772-50.229,63.029-52.966,79.448
	c77.771,34.781,161.977,52.824,247.172,52.966C373.846,480.835,483.132,440.316,503.17,428.134z"/>
<path style="fill:#3B485B;" d="M454.001,386.91c-66.383-28.072-110.698-44.138-198.003-44.138S124.379,358.838,57.995,386.91
	c-19.297,8.527-33.774,25.238-39.459,45.55c75.132,31.806,155.878,48.252,237.462,48.375c108.314,0,206.742-33.368,237.55-48.199
	C487.81,412.28,473.315,395.525,454.001,386.91z"/>
<path style="fill:#D1D8DB;" d="M137.62,319.732c10.84,53.018,25.318,105.225,43.343,156.248c24.77,3.196,49.708,4.82,74.681,4.855
	c28.46-0.097,56.867-2.277,85.01-6.532c13.18-51.218,23.764-103.071,31.691-155.366c-37.844-10.62-77.056-15.528-116.348-14.566
	C215.982,303.401,176.064,308.582,137.62,319.732z"/>
<path style="fill:#DDB8AF;" d="M344.274,295.721c-14.301,23.57-51.2,74.77-79.448,88.276H247.17
	c-28.248-13.506-65.148-64.706-79.448-88.276v-17.655h176.552V295.721z"/>
<path style="fill:#BA362A;" d="M224.042,479.864c10.417,0.618,21.098,0.971,31.956,0.971c10.858,0,21.451,0,31.956-0.971
	l-23.128-60.557H247.17L224.042,479.864z"/>
<path style="fill:#333333;" d="M255.998,489.663c-10.478,0-21.398-0.327-32.477-0.98c-2.807-0.168-5.367-1.66-6.894-4.017
	c-1.527-2.357-1.836-5.314-0.83-7.936l23.128-60.557c1.307-3.434,4.582-5.694,8.245-5.694h17.655c3.663,0,6.938,2.26,8.254,5.685
	l23.128,60.557c0.98,2.578,0.706,5.473-0.759,7.812c-1.457,2.348-3.928,3.866-6.682,4.131
	C277.855,489.663,267.235,489.663,255.998,489.663z M236.639,471.637c13.533,0.512,26.483,0.565,38.788,0.159l-16.675-43.661h-5.5
	L236.639,471.637z"/>
<polygon style="fill:#BA362A;" points="264.826,419.307 282.481,383.996 229.515,383.996 247.17,419.307 "/>
<path style="fill:#333333;" d="M264.826,428.134H247.17c-3.346,0-6.4-1.889-7.901-4.882l-17.655-35.31
	c-1.368-2.737-1.218-5.985,0.388-8.589c1.607-2.604,4.449-4.184,7.512-4.184h52.965c3.063,0,5.897,1.589,7.512,4.193
	s1.757,5.853,0.388,8.589l-17.655,35.31C271.225,426.245,268.171,428.134,264.826,428.134z M252.626,410.479h6.744l8.828-17.655
	h-24.399L252.626,410.479z"/>
<path style="fill:#EBF0F2;" d="M167.722,295.721l-17.655,35.31l61.793,105.931l35.31-52.966
	C218.922,370.49,182.023,319.29,167.722,295.721z"/>
<path style="fill:#333333;" d="M211.86,445.79c-0.088,0-0.177,0-0.265,0c-3.046-0.097-5.826-1.748-7.362-4.378L142.44,335.48
	c-1.501-2.578-1.607-5.729-0.274-8.395l17.655-35.31c1.439-2.869,4.326-4.74,7.539-4.873c3.169-0.274,6.241,1.483,7.91,4.237
	c17.284,28.487,52.198,73.649,75.714,84.886c2.304,1.103,4.025,3.151,4.705,5.623c0.68,2.472,0.247,5.111-1.165,7.239l-35.31,52.966
	C217.563,444.315,214.8,445.79,211.86,445.79z M160.095,330.713l52.259,89.582l22.254-33.386
	c-24.276-16.225-50.794-50.979-65.916-73.393L160.095,330.713z"/>
<path style="fill:#EBF0F2;" d="M344.274,295.721l17.655,35.31l-61.793,105.931l-35.31-52.966
	C293.074,370.49,329.973,319.29,344.274,295.721z"/>
<path style="fill:#333333;" d="M300.136,445.79c-2.948,0-5.703-1.474-7.345-3.928l-35.31-52.966
	c-1.421-2.127-1.845-4.767-1.165-7.239c0.68-2.463,2.392-4.52,4.705-5.623c23.517-11.237,58.43-56.408,75.714-84.886
	c1.66-2.754,4.705-4.502,7.91-4.237c3.204,0.132,6.091,2.004,7.539,4.873l17.655,35.31c1.324,2.666,1.236,5.817-0.265,8.395
	L307.781,441.42c-1.536,2.631-4.317,4.281-7.362,4.378C300.312,445.79,300.224,445.79,300.136,445.79z M277.378,386.91
	l22.254,33.386l52.259-89.582l-8.598-17.196C328.172,335.93,301.663,370.684,277.378,386.91z"/>
<path style="fill:#EDCCC3;" d="M255.998,339.859c12.623,0,44.138,0,61.793-17.655c17.655-17.655,35.31-52.966,35.31-79.448
	c17.655-0.883,26.483-17.655,28.778-34.604c7.327-49.081-14.301-47.228-20.039-44.844c0,0,0-22.334,0-35.31
	c0-41.666-24.099-87.481-105.931-87.481S149.979,86.33,149.979,127.996c0,12.977,0,35.31,0,35.31
	c-5.738-2.383-27.277-5.032-19.774,45.55c2.472,16.596,10.681,33.015,28.69,33.898c0,26.483,17.655,61.793,35.31,79.448
	C211.86,339.859,243.374,339.947,255.998,339.859z"/>
<g>
	<path style="fill:#E5C2BA;" d="M353.101,242.755c17.655-0.883,26.483-17.655,28.778-34.604
		c7.327-49.081-14.301-47.228-20.039-44.844c0,0,0-22.334,0-35.31c0-41.666-24.099-87.481-105.931-87.481c-2.913,0-5.65,0-8.386,0
		c-19.332,71.857-32.662,148.921-31.25,209.302c0,20.921,2.295,53.76,5.473,86.51c11.343,2.586,22.969,3.778,34.604,3.531
		c12.623,0,44.138,0,61.793-17.655C335.799,304.548,353.101,269.238,353.101,242.755z"/>
	<path style="fill:#E5C2BA;" d="M363.871,158.54c0,0,0.971-19.156,0.971-32.221c0.441-41.666-27.012-85.804-109.021-85.804
		s-109.462,44.138-109.021,85.804c0,13.065,1.059,32.221,1.059,32.221c-6.268-2.56-7.592-2.56-15.448,4.767
		c20.127,15.183,26.483,30.279,26.483,44.138c6.338,0.565,11.97-4.008,12.712-10.328l4.061-27.983l9.446-10.063v-7.592
		c3.964,1.545,8.033,2.781,12.182,3.708c46.698,10.77,110.257-7.68,138.152-18.361v17.655l8.828,8.828v44.138h10.24
		c3.399,0.018,6.435-2.101,7.592-5.297c3.443-10.964,11.132-20.092,21.363-25.335c-0.733-4.97-3.125-9.543-6.797-12.977
		C368.903,156.51,370.139,155.98,363.871,158.54z"/>
</g>
<path style="fill:#DBB8B2;" d="M222.806,158.363c38.541-0.344,76.694-7.636,112.64-21.539v17.655l8.828,8.828v44.138h10.24
	c3.399,0.018,6.435-2.101,7.592-5.297c3.372-10.399,10.478-19.174,19.95-24.629c-3.972-17.655-16.154-15.978-20.215-14.212
	c0,0,0-22.334,0-35.31c0-41.666-24.099-87.481-105.931-87.481c-2.913,0-5.65,0-8.386,0
	C236.966,79.277,228.712,118.63,222.806,158.363z"/>
<g>
	<path style="fill:#333333;" d="M147.86,164.807c-3.655,0-6.621-2.966-6.621-6.621v-7.15c0-3.655,2.966-6.621,6.621-6.621
		s6.621,2.966,6.621,6.621v7.15C154.481,161.841,151.515,164.807,147.86,164.807z"/>
	<path style="fill:#333333;" d="M364.224,165.072c-3.655,0-6.621-2.966-6.621-6.621v-7.239c0-3.655,2.966-6.621,6.621-6.621
		s6.621,2.966,6.621,6.621v7.239C370.845,162.106,367.879,165.072,364.224,165.072z"/>
</g>
<path style="fill:#E2B886;" d="M379.584,101.514c-7.768-24.982-59.41-70.621-123.586-70.621c-93.749,0-121.732,74.77-123.586,79.448
	l8.828,8.828c-6.179,28.337-8.828,44.138-8.828,44.138c16.861,16.772,26.483,22.422,26.483,44.138h8.828v-44.138l8.828-8.828
	v-17.655c20.833,4.767,71.239,24.011,158.897-17.655v35.31l8.828,8.828v44.138h8.828c0-21.804,25.6-44.844,26.483-44.138
	c3.822-18.141,0.671-37.049-8.828-52.966C374.702,108.611,377.854,105.46,379.584,101.514z"/>
<path style="fill:#D8A766;" d="M158.894,207.445h8.828v-44.138l8.828-8.828v-17.655c20.833,4.767,71.239,24.011,158.897-17.655
	v35.31l8.828,8.828v44.138h8.828c1.245-13.568,7.548-26.174,17.655-35.31c-0.503-21.769-6.585-43.043-17.655-61.793l26.483-8.828
	l0,0c-8.828-28.16-78.124-74.24-144.596-56.32c-27.542,7.503-71.68,29.131-84.921,65.148l8.828,10.24
	c-7.283,16.675-13.188,33.916-17.655,51.553C152.609,180.256,159.221,193.479,158.894,207.445z"/>
<polygon style="fill:#D3A879;" points="333.416,120.934 369.697,110.165 374.111,126.231 333.592,138.678 "/>
<path style="fill:#C9985D;" d="M362.812,130.027c-2.127-6.153-4.882-12.067-8.21-17.655l-19.156,6.444v19.068L362.812,130.027z"/>
<g>
	<path style="fill:#AF844B;" d="M341.714,119.169l-2.295,35.31l-1.148-2.825l8.121,9.446l0,0c0.433,0.512,0.618,1.192,0.53,1.854
		l-3.001,44.138l-3.001-44.138l0.883,2.119l-9.534-8.121c-0.671-0.583-1.086-1.412-1.148-2.295v-0.53l-2.295-35.31
		c-0.247-3.46,2.366-6.462,5.826-6.709c3.46-0.247,6.462,2.366,6.709,5.826C341.661,118.268,341.784,118.727,341.714,119.169z"/>
	<path style="fill:#AF844B;" d="M182.817,127.996l-1.677,26.483v0.706c-0.079,0.953-0.521,1.836-1.236,2.472l-9.71,8.033
		l0.971-2.383l-3.354,44.138l-3.354-44.138c-0.079-0.706,0.141-1.412,0.618-1.942v-0.441l7.945-9.71l-1.324,3.266l-1.677-26.483
		c-0.247-3.46,2.366-6.462,5.826-6.709c3.46-0.247,6.462,2.366,6.709,5.826C182.729,127.37,182.826,127.679,182.817,127.996z"/>
</g>
<path style="fill:#D8A766;" d="M150.067,110.341c26.483,26.483,61.793,61.793,194.207,0
	C344.274,110.341,211.86,48.548,150.067,110.341z"/>
<path style="fill:#AF844B;" d="M347.717,116.697c-15.307,7.142-31.082,13.215-47.228,18.185
	c-15.96,5.014-32.318,8.651-48.905,10.858c-16.702,2.357-33.686,1.88-50.229-1.412c-16.543-3.328-31.462-12.209-42.284-25.159
	c11.432,11.855,26.562,19.456,42.902,21.539c16.084,2.145,32.415,1.518,48.287-1.854c15.925-3.231,31.523-7.901,46.61-13.948
	c15.166-5.87,29.917-12.774,44.138-20.657L347.717,116.697z"/>
<g>
	<path style="fill:#E2B886;" d="M308.963,110.341c-5.826,2.825-11.829,5.208-17.655,7.503c-5.826,2.295-12.359,3.972-18.714,5.297
		c-12.685,3.001-25.635,4.714-38.665,5.12c-13.065,0.353-26.13-0.794-38.93-3.443c-12.879-2.375-25.15-7.292-36.105-14.477
		c12.359,2.392,24.858,3.99,37.429,4.767c12.447,0.706,24.806,0.883,37.252,0.53c6.179,0,12.447,0,18.626-0.794
		c6.179-0.794,12.447-1.059,18.714-1.324l18.891-1.677C295.722,111.224,302.431,110.518,308.963,110.341z"/>
	<path style="fill:#E2B886;" d="M300.136,110.341c-5.12,1.766-10.328,3.001-15.625,4.326s-10.593,1.766-15.978,2.295
		c-10.77,1.059-21.628,1.059-32.397,0c-10.849-1.086-21.53-3.522-31.779-7.239c-10.443-3.443-19.959-9.242-27.807-16.949
		c9.958,3.24,20.136,5.747,30.455,7.503c10.063,1.854,20.303,3.001,30.455,4.149c10.152,1.148,20.568,1.854,30.985,2.825
		l15.713,1.324C289.454,108.929,294.751,109.37,300.136,110.341z"/>
	<path style="fill:#E2B886;" d="M357.515,96.305c-6.444,1.148-12.977,1.942-19.597,2.472c-6.559,0.353-13.127,0.353-19.686,0
		c-13.215-0.768-26.315-2.869-39.106-6.268c-12.676-3.743-24.876-8.925-36.37-15.448c-11.82-6.206-22.316-14.663-30.897-24.894
		c11.22,6.126,22.846,11.494,34.781,16.066c11.829,4.59,23.746,8.828,35.84,11.917c6.091,1.677,12.182,3.354,18.361,4.679
		c6.179,1.324,12.359,2.648,18.626,4.061c6.268,1.412,12.535,2.295,18.891,3.619C344.715,93.834,351.071,94.716,357.515,96.305z"/>
</g>
<g>
	<path style="fill:#333333;" d="M158.894,207.445c-1.183-8.642-4.935-16.728-10.77-23.217c-2.657-3.213-5.614-6.17-8.828-8.828
		l-5.12-3.796l-2.648-1.677l-1.324-0.883l-0.794-0.441h-0.441l-0.971-0.706v-0.53l0,0c-2.101-2.816-1.518-6.797,1.298-8.898
		c0.521-0.388,1.095-0.689,1.704-0.9c0.671-0.124,1.359-0.124,2.03,0c3.487,0.415,5.976,3.575,5.561,7.062
		c-0.344,2.922-2.648,5.217-5.561,5.561c0.671,0.124,1.359,0.124,2.03,0c1.633-0.53,2.984-1.713,3.708-3.266
		c0.618-1.527,0.618-3.24,0-4.767c-0.23-0.591-0.53-1.148-0.883-1.677l0,0l0,0l0,0l0,0l0.53,0.53l1.236,1.236l2.472,2.56
		c1.589,1.766,3.09,3.619,4.502,5.473c2.931,3.69,5.508,7.645,7.68,11.829C158.162,189.966,159.751,198.741,158.894,207.445z"/>
	<path style="fill:#333333;" d="M353.101,207.445c-0.777-9.181,1.156-18.388,5.561-26.483c2.163-4.273,4.732-8.324,7.68-12.094
		c1.412-1.854,2.913-3.708,4.502-5.473l2.472-2.56l1.236-1.236l0.53-0.53l0,0l0,0l0,0l0,0c-0.353,0.53-0.653,1.086-0.883,1.677
		c-0.618,1.527-0.618,3.24,0,4.767c0.724,1.554,2.074,2.737,3.708,3.266c0.671,0.124,1.359,0.124,2.03,0
		c-3.487-0.415-5.976-3.575-5.561-7.062c0.344-2.922,2.648-5.217,5.561-5.561c0.671-0.124,1.359-0.124,2.03,0
		c3.31,1.156,5.067,4.785,3.902,8.095c-0.212,0.609-0.521,1.183-0.9,1.704l0,0v0.53l-0.53,0.441l0,0l-0.794,0.441l-1.324,0.883
		l-2.648,1.677l-5.12,3.796c-3.213,2.657-6.171,5.614-8.828,8.828C358.901,189.242,354.47,197.99,353.101,207.445z"/>
</g>
<path style="fill:#AF844B;" d="M379.408,108.752c-15.192,5.711-31.073,9.357-47.228,10.858c-15.819,1.536-31.77,0.856-47.404-2.03
	c-7.759-1.359-15.404-3.302-22.863-5.826c-7.389-2.613-14.557-5.8-21.451-9.534c-13.674-7.292-26.271-16.437-37.429-27.189
	c12.12,9.516,25.485,17.329,39.724,23.217c6.965,2.895,14.142,5.288,21.451,7.15c7.292,1.668,14.698,2.825,22.157,3.443
	c14.751,1.245,29.599,0.477,44.138-2.295c14.345-2.745,28.266-7.371,41.401-13.771L379.408,108.752z"/>
<g>
	<path style="fill:#333333;" d="M379.593,172.134c-0.786,0-1.58-0.106-2.375-0.327c-4.696-1.307-7.45-6.17-6.144-10.867
		c4.334-15.625,1.562-32.247-7.601-45.612c-2.392-3.505-1.969-8.227,1.042-11.229l4.652-4.652
		c-10.946-21.027-55.014-59.727-113.17-59.727c-77.859,0-105.198,47.634-113.382,68.343l1.245,1.245
		c2.163,2.163,3.054,5.297,2.348,8.271c-3.522,14.927-5.199,30.27-4.97,45.603c0.071,4.873-3.822,8.881-8.695,8.96
		c-0.044,0-0.088,0-0.132,0c-4.811,0-8.748-3.866-8.828-8.695c-0.221-15.122,1.245-30.27,4.361-45.074l-1.774-1.774
		c-2.498-2.498-3.266-6.241-1.951-9.525c4.723-14.248,33.245-85.01,131.778-85.01c66.057,0,122.306,45.506,132.017,76.835
		c0.971,3.125,0.132,6.541-2.189,8.854l-3.911,3.911c8.969,16.446,11.238,35.743,6.179,53.998
		C387.008,169.574,383.451,172.134,379.593,172.134z"/>
	<path style="fill:#333333;" d="M255.998,489.927c-87.005-0.141-171.379-18.22-250.774-53.733c-3.672-1.642-5.764-5.553-5.102-9.507
		c3.31-19.88,15.616-68.052,58.227-86.131c23.084-10.302,47.183-19.332,71.477-26.792l5.182,16.878
		c-23.614,7.239-47.042,16.022-69.614,26.103c-30.738,13.047-42.346,46.795-46.566,66.145
		c75.255,32.636,155.021,49.249,237.188,49.382c109.082,0,209.602-35.275,237.294-48.834c-4.087-19.288-15.563-53.619-46.521-66.613
		c-22.74-10.019-46.186-18.812-69.835-26.2l5.261-16.843c24.285,7.574,48.358,16.605,71.548,26.827
		c42.584,17.858,54.837,66.163,58.112,86.095c0.583,3.513-1.015,7.044-4.052,8.934C489.329,447.123,379.328,489.927,255.998,489.927
		z"/>
	<ellipse style="fill:#333333;" cx="216.362" cy="201.089" rx="7.768" ry="5.561"/>
	<ellipse style="fill:#333333;" cx="295.987" cy="201.089" rx="7.768" ry="5.473"/>
	<path style="fill:#333333;" d="M273.83,280.537h-35.31c-2.436,0-4.414-1.977-4.414-4.414s1.977-4.414,4.414-4.414h35.31
		c2.436,0,4.414,1.977,4.414,4.414S276.266,280.537,273.83,280.537z"/>
	<path style="fill:#333333;" d="M256.236,249.199c-3.169,0-6.382-0.521-9.437-1.562l-9.446-2.569
		c-2.348-0.644-3.734-3.072-3.098-5.42s3.072-3.725,5.42-3.098l9.71,2.648c4.458,1.527,9.101,1.527,13.294,0.079l9.975-2.737
		c2.375-0.618,4.785,0.75,5.42,3.098c0.636,2.357-0.742,4.785-3.098,5.42l-9.71,2.648
		C262.424,248.705,259.344,249.199,256.236,249.199z"/>
	<path style="fill:#333333;" d="M251.761,298.192c-2.392,0-4.361-1.916-4.414-4.326c-0.044-2.428,1.889-4.449,4.326-4.502
		l8.828-0.185c2.701,0.106,4.458,1.889,4.502,4.317c0.053,2.436-1.88,4.458-4.317,4.511l-8.828,0.185
		C251.822,298.192,251.787,298.192,251.761,298.192z"/>
</g>
<path style="fill:#3B485B;" d="M143.799,470.065c17.037,3.178,35.31,5.914,54.554,7.857
	c-16.914-56.408-27.198-114.591-30.632-173.374l-44.138,17.655l-8.828,44.138l26.483,26.483l-26.483,26.483L143.799,470.065z"/>
<path style="fill:#333333;" d="M198.354,486.75c-0.291,0-0.591-0.018-0.883-0.044c-18.255-1.845-36.855-4.52-55.296-7.954
	c-2.551-0.486-4.758-2.048-6.047-4.29l-29.043-50.759c-1.977-3.46-1.395-7.812,1.421-10.628l20.242-20.242l-20.242-20.242
	c-2.083-2.083-2.993-5.076-2.41-7.971l8.828-44.138c0.583-2.922,2.604-5.349,5.376-6.462l44.138-17.655
	c2.639-1.059,5.606-0.786,8.015,0.75c2.392,1.518,3.911,4.105,4.078,6.93c3.39,58.033,13.577,115.686,30.279,171.352
	c0.847,2.816,0.23,5.879-1.651,8.157C203.474,485.584,200.976,486.75,198.354,486.75z M149.422,462.129
	c12.253,2.207,24.558,4.07,36.767,5.553c-13.798-49.081-22.678-99.566-26.465-150.422l-28.416,11.37l-6.965,34.807l23.146,23.146
	c3.452,3.452,3.452,9.031,0,12.482l-21.707,21.716L149.422,462.129z"/>
<path style="fill:#3B485B;" d="M368.373,469.801l28.866-50.494l-26.483-26.483l26.483-26.483l-8.828-44.138l-44.138-17.655
	c-3.487,58.739-13.85,116.877-30.897,173.197C332.621,475.803,350.983,473.067,368.373,469.801z"/>
<path style="fill:#333333;" d="M313.377,486.573c-2.622,0-5.129-1.174-6.815-3.213c-1.871-2.278-2.481-5.341-1.633-8.174
	c16.817-55.596,27.092-113.187,30.535-171.167c0.168-2.825,1.677-5.402,4.078-6.93c2.401-1.518,5.394-1.792,8.007-0.742
	l44.138,17.655c2.772,1.112,4.793,3.54,5.376,6.462l8.828,44.138c0.574,2.895-0.327,5.888-2.41,7.971l-20.242,20.25l20.242,20.242
	c2.816,2.807,3.399,7.168,1.421,10.62l-28.866,50.494c-1.289,2.251-3.496,3.822-6.038,4.29c-18.573,3.496-37.332,6.206-55.737,8.06
	C313.96,486.555,313.669,486.573,313.377,486.573z M352.263,317.251c-3.84,50.803-12.791,101.226-26.686,150.254
	c12.341-1.51,24.788-3.399,37.173-5.65l23.481-41.075l-21.716-21.716c-3.452-3.452-3.452-9.031,0-12.482l23.137-23.146
	l-6.956-34.807L352.263,317.251z"/>
<rect x="344.274" y="410.479" style="fill:#FFFFFF;" width="26.483" height="17.655"/>
<g>
	<rect x="344.274" y="410.479" style="fill:#BA362A;" width="26.483" height="3.531"/>
	<rect x="344.274" y="417.541" style="fill:#BA362A;" width="26.483" height="3.531"/>
	<rect x="344.274" y="424.603" style="fill:#BA362A;" width="26.483" height="3.531"/>
</g>
<rect x="344.274" y="410.479" style="fill:#2F62AB;" width="10.593" height="10.593"/>
<g>
	<path style="fill:#333333;" d="M137.62,166.838c-4.149,5.394-5.932,12.244-4.943,18.979c0.706,7.68,1.827,15.307,3.354,22.863
		c1.174,6.833,3.928,13.303,8.033,18.891c3.663,4.687,9.242,7.477,15.183,7.592c3.628,0.053,6.674,2.763,7.15,6.356v0.441
		c1.086,10.522,3.01,20.939,5.738,31.161c2.816,9.693,7.592,18.706,14.036,26.483c3.178,4.061,6.709,8.033,10.152,12.182
		c2.684,3.752,6.109,6.903,10.063,9.269c8.748,4.687,18.3,7.68,28.16,8.828l0,0h1.589c5.447,2.225,11.185,3.655,17.037,4.237
		c2.701,0.309,5.42,0.309,8.121,0c2.975-0.512,5.923-1.192,8.828-2.03l0,0h1.501c10.434-0.106,20.71-2.516,30.102-7.062
		c4.723-2.348,8.925-5.623,12.359-9.622c3.884-4.237,7.68-8.828,11.211-12.712c7.124-8.051,12.5-17.487,15.801-27.719
		c2.957-10.787,5.023-21.804,6.179-32.927l0,0c0.353-2.825,2.719-4.97,5.561-5.032c6.453-0.221,12.42-3.496,16.066-8.828
		c4.034-5.897,6.691-12.623,7.768-19.686c1.492-7.574,2.436-15.245,2.825-22.952c0.892-6.788-1.095-13.63-5.473-18.891l0,0
		c-1.536-1.607-1.536-4.131,0-5.738c1.571-1.527,4.078-1.527,5.65,0c6.329,6.682,9.534,15.722,8.828,24.894
		c-0.026,8.218-0.644,16.419-1.854,24.541c-0.945,8.792-3.972,17.24-8.828,24.629c-5.614,8.086-14.627,13.127-24.452,13.683
		l5.561-5.208c-0.803,11.908-2.657,23.729-5.561,35.31c-3.513,12.041-9.534,23.199-17.655,32.75
		c-3.619,4.767-7.415,9.269-11.299,13.683c-4.184,5.12-9.269,9.428-15.007,12.712c-11.238,6.126-23.755,9.543-36.546,9.975h1.589
		c-3.178,0.883-6.709,1.854-10.417,2.56c-3.928,0.724-7.927,0.962-11.917,0.706c-7.486-0.521-14.866-2.127-21.892-4.767l1.766,0.441
		c-12.129-1.245-23.905-4.811-34.692-10.505c-2.966-1.713-5.747-3.725-8.298-6.003l-2.03-2.03l-1.412-1.589l-2.737-3.09
		c-3.796-4.149-7.503-8.828-11.034-13.153c-7.539-9.578-12.959-20.648-15.89-32.486c-2.586-11.202-4.273-22.599-5.032-34.074
		l7.239,6.797c-10.152-0.874-19.368-6.294-25.07-14.742c-4.943-7.609-7.98-16.305-8.828-25.335
		c-1.13-8.192-1.633-16.455-1.501-24.717c-0.344-9.322,3.204-18.379,9.799-24.982c1.81-1.324,4.352-0.936,5.676,0.865
		c1.095,1.483,1.042,3.522-0.115,4.961L137.62,166.838z"/>
	<path style="fill:#333333;" d="M207.446,306.579c5.058,8.889,12.526,16.172,21.539,21.01c8.474,3.831,17.708,5.703,27.012,5.473
		c9.287,0.265,18.503-1.642,26.924-5.561c9.039-4.793,16.534-12.05,21.628-20.921c0.927,12.35-4.167,24.382-13.683,32.309
		c-20.604,15.757-49.223,15.757-69.826,0C211.56,330.943,206.493,318.911,207.446,306.579z"/>
</g>
<g>
</g>
<g>
</g>
<g>
</g>
<g>
</g>
<g>
</g>
<g>
</g>
<g>
</g>
<g>
</g>
<g>
</g>
<g>
</g>
<g>
</g>
<g>
</g>
<g>
</g>
<g>
</g>
<g>
</g>
</svg>
